<?xml version="1.0" encoding="UTF-8"?>
<svg width="293px" height="44px" viewBox="0 0 293 44" version="1.1" xmlns="http://www.w3.org/2000/svg" xmlns:xlink="http://www.w3.org/1999/xlink">
    <title>编组 4</title>
    <g id="页面-1" stroke="none" stroke-width="1" fill="none" fill-rule="evenodd">
        <g id="集团-应用集成门户系统-02.09-集团-协同办公平台-领导工作台-蓝色山水版-字体加大-待办样式-" transform="translate(-272.000000, -11.000000)" fill="#8DC5FF">
            <g id="编组-4" transform="translate(272.000000, 11.000000)">
                <path d="M37.2573461,40.6622785 C37.0983148,40.9934873 36.9856889,41.1002685 36.7119993,41.1002685 L36.1929037,41.1002685 L36.1929037,42.0509445 L37.4195952,42.0509445 C37.6572106,42.0509445 38.0226946,41.9633465 38.2723347,41.4447188 L39.4507579,38.9982561 L38.0591075,38.9982561 L37.2573461,40.6622785 Z M36.2072995,37.5381196 L36.2072995,38.5583987 L40.0374291,38.5583987 L40.0374291,41.3165473 C40.0374291,41.4662788 39.9232789,41.5691555 39.7552714,41.5691555 L39.0608858,41.5691555 L39.0608858,42.5306963 L40.0374291,42.5306963 L40.6251164,42.5306963 L40.7660259,42.5306963 C41.1504784,42.5306963 41.4651537,42.1616303 41.4651537,41.7105686 L41.4651537,38.5583987 L42.0961978,38.5583987 L42.0961978,37.5381196 L41.4651537,37.5381196 L41.4651537,36.9716186 L40.0374291,36.9716186 L40.0374291,37.5381196 L36.2072995,37.5381196 Z M42.9665509,43.9349806 C43.5344229,43.9349806 44,43.4606612 44,42.8797302 L44,35.4941663 L36.4120586,35.4941663 L35.7027691,36.3411167 L35.702261,35.4941663 L34.2438818,35.4941663 L34.2438818,43.9349806 L42.9665509,43.9349806 Z M42.1979846,42.9282826 L35.702261,42.9282826 L35.702261,36.5601117 L42.5428063,36.5601117 L42.5428063,42.5770418 C42.5428063,42.7704025 42.3878398,42.9282826 42.1979846,42.9282826 L42.1979846,42.9282826 Z M15.369464,42.7968856 C15.449403,42.9880394 15.5444153,43.0525495 15.6086036,43.0525495 L15.7618765,43.0525495 L15.7618765,43.9638404 L14.7748328,43.9638404 C14.4433906,43.9638404 14.2816496,43.4336687 14.2816496,43.4336687 L13.7312219,41.7772856 L12.9716318,43.4503056 C12.9716318,43.4503056 12.7765264,43.9855701 12.3427894,43.9855701 L11.4761622,43.9855701 L11.4761622,43.0252176 L11.6834618,43.0252176 C11.6834618,43.0252176 11.8601067,43.0326872 11.9778135,42.7369591 L13.1435346,39.7886752 L13.1435346,35.4564788 L14.4222203,35.4564788 L14.4222203,39.7942774 L15.369464,42.7968856 Z M15.9798459,39.5387833 C15.9798459,39.8929101 15.6987044,40.1823569 15.3550682,40.1823569 L14.7307985,40.1823569 L14.7307985,39.307056 C14.8586671,39.307056 14.9233635,39.2427156 14.9228554,39.1108093 L14.9228554,35.8090777 L15.9798459,35.8090777 L15.9798459,39.5387833 Z M11.5122364,39.5275789 C11.5122364,39.8815359 11.7932086,40.1713223 12.1368448,40.1713223 L12.7616225,40.1713223 L12.7616225,39.3428761 C12.6344314,39.3428761 12.5697349,39.279045 12.5697349,39.1467992 L12.5697349,35.7977036 L11.5122364,35.7977036 L11.5122364,39.5275789 Z M21.2265221,39.1230323 L21.2265221,36.7665442 L21.4832755,36.7665442 L21.4832755,35.8111149 L21.2265221,35.8111149 L21.2265221,35.4092845 L19.8970277,35.4092845 L19.8970277,35.8111149 L17.8131933,35.8111149 L17.8131933,35.452744 L16.4836989,35.452744 L16.4836989,35.8111149 L16.2174613,35.8111149 L16.2174613,36.7665442 L16.4836989,36.7665442 L16.4836989,40.0339836 L17.8131933,40.0339836 L18.1525955,40.0339836 L18.1525955,40.4475276 L16.0806165,40.4475276 L16.0806165,41.3712112 L18.1525955,41.3712112 L18.1525955,43.9993209 L19.4514353,43.9993209 L19.4514353,41.3712112 L21.5240918,41.3712112 L21.5240918,40.4475276 L19.4514353,40.4475276 L19.4514353,40.0339836 L20.359895,40.0339836 C20.5646541,40.0339836 21.2265221,39.8582783 21.2265221,39.1230323 L21.2265221,39.1230323 Z M17.8131933,38.1942558 L17.8131933,36.7665442 L19.8970277,36.7665442 L19.8970277,37.4276036 L18.540774,37.4276036 L17.9430943,38.1937465 L17.8131933,38.1942558 Z M17.8131933,38.3932187 L19.8970277,38.3932187 L19.8970277,38.8500525 C19.8970277,39.0646336 19.7124227,39.0919656 19.6121602,39.0919656 L17.8131933,39.0919656 L17.8131933,38.3932187 Z M17.6407825,43.3737422 L18.0396308,41.8039385 L16.7170802,41.8039385 L16.5175713,42.5889252 C16.4471166,42.8664887 16.3856381,42.9973764 16.1388771,42.9973764 L15.9512236,42.9973764 L15.9512236,43.9526416 L16.8745872,43.9526416 C17.0298925,43.9526416 17.4914049,43.9606149 17.6407825,43.3737422 L17.6407825,43.3737422 Z M20.0575832,43.3737422 L19.6795664,41.8039385 L21.0017783,41.8039385 L21.2822424,42.7644608 C21.3278008,42.9223409 21.3372851,42.9973764 21.4885257,42.9973764 L21.5845542,42.9973764 L21.5845542,43.9526453 L20.8239478,43.9526453 C20.6681345,43.9526453 20.1998476,43.9621427 20.0575832,43.3737422 L20.0575832,43.3737422 Z M10.0420019,42.3684024 C10.0420019,42.8019785 9.69514777,43.1562751 9.27089508,43.1562751 L5.83859768,43.1562751 L5.83859768,43.8830329 L4.45219748,43.8830329 L4.45219748,43.1562751 L0.27521382,43.1562751 L0.27521382,35.9992129 L1.72631044,35.9992129 L1.72631044,36.8865671 L1.81319333,36.8865671 L2.57583199,35.9992129 L4.45219748,35.9992129 L4.45219748,35.342907 L5.83859768,35.342907 L5.83859768,35.9992129 L10.0420019,35.9992129 L10.0420019,42.3684024 Z M5.83859768,37.15734 L5.83859768,41.9976387 L8.44372936,41.9976387 C8.52536201,41.9976387 8.59209078,41.9214149 8.59209078,41.8280449 L8.59209078,37.15734 L5.83859768,37.15734 Z M4.45219748,41.9976387 L4.45219748,37.15734 L1.94207808,37.15734 L1.72631044,37.15734 L1.72631044,41.9976387 L4.45219748,41.9976387 Z M25.486324,35.7988919 L27.5179947,35.7988919 L27.5179947,35.7977036 L27.8479126,35.4109822 L29.2893556,35.4109822 L29.4643069,35.7988919 L32.7191125,35.7988919 L32.7191125,36.6926971 L29.2522652,36.6926971 L29.2522652,37.0627817 L32.7191125,37.0627817 L32.7191125,37.9565868 L29.2522652,37.9565868 L29.2522652,38.3263319 L32.7191125,38.3263319 L32.7191125,39.220137 L29.2522652,39.220137 L29.2522652,39.5593246 L32.7191125,39.5593246 L32.7191125,40.4529601 L25.002117,40.4529601 L25.002117,40.6688993 L23.4917436,40.6688993 L23.4917436,37.4666492 L22.8579897,37.4666492 L22.8579897,36.4961109 L23.0302312,36.4961109 C23.320857,36.4961109 23.443814,36.400534 23.5743924,36.2502932 L24.2999407,35.4092845 L25.8230163,35.4092845 L25.486324,35.7988919 Z M25.002117,39.5593246 L27.6802439,39.5593246 L27.6802439,39.220137 L25.002117,39.220137 L25.002117,39.5593246 Z M27.6802439,38.3263319 L25.6236769,38.3263319 L25.0842578,38.9826378 L24.9958506,38.9826378 L25.002117,37.9565868 L27.6802439,37.9565868 L27.6802439,38.3263319 Z M27.6802439,37.0627817 L25.6236769,37.0627817 L25.0847659,37.7190876 L25.002117,37.7190876 L25.002117,36.6926971 L27.6802439,36.6926971 L27.6802439,37.0627817 Z M30.8405453,43.9100253 C30.4366161,43.9100253 30.0828182,43.5209272 29.9268355,43.2423452 L29.2905411,42.1110408 L30.7096282,42.1110408 L31.0649505,42.7043645 C31.0649505,42.7043645 31.2803794,43.0004321 31.6790583,43.0004321 L32.6100432,43.0004321 L32.6100432,43.9100253 L30.8405453,43.9100253 Z M22.9411466,40.9729459 L22.9411466,41.8613186 L27.0981455,41.8613186 L27.0981455,43.8825236 L28.5087645,43.8825236 L28.5087645,41.8613186 L32.6952324,41.8613186 L32.6952324,40.9729459 L28.5087645,40.9729459 L28.5087645,40.6665226 L27.0981455,40.6665226 L27.0981455,40.9729459 L22.9411466,40.9729459 Z M24.6727073,44 L22.9040562,44 L22.9040562,43.0907463 L23.8341943,43.0907463 C24.233212,43.0907463 24.4489796,42.7939996 24.4489796,42.7939996 L24.9167584,42.2016945 L26.3360149,42.2016945 L25.6490812,43.3708562 C25.4868321,43.6458732 25.0762977,44 24.6727073,44 L24.6727073,44 Z M16.6671183,32.6569078 C16.1590312,32.6569078 15.7476501,32.2409871 15.7476501,31.7271128 L15.9320857,27.2871165 L10.9690914,27.2871165 L10.7988822,27.2883048 C4.83614193,27.3358386 0,22.4142231 0,16.4037441 C0,10.3936045 4.83614193,5.51901352 10.774494,5.51901352 L16.815141,5.51935305 L16.9704463,0.838122724 C16.9704463,0.375517007 17.3411805,0 17.799475,0 L26.1456516,0 C26.6032687,0 26.9750191,0.375517007 26.9750191,0.838122724 L27.1298162,5.51935305 L33.1704632,5.51901352 C38.6639004,5.51901352 43.2131425,9.69095315 43.8643408,15.0743256 L32.8087052,15.0743256 C32.2095012,12.6624946 29.9925481,10.8995 27.4416123,10.921739 L27.5826912,15.1057318 L24.3571852,15.1057318 L24.3571852,10.9363387 L19.6116521,10.9363387 L19.6116521,21.8411013 L24.3571852,21.8411013 L24.3571852,17.6479412 L27.6687272,17.6479412 L27.8103142,21.8336317 C30.2584469,21.693407 32.2757219,19.9497654 32.8224236,17.6404716 L43.8748412,17.6404716 C43.2656448,23.0744336 38.6938776,27.3322736 33.146075,27.2883048 L32.9753578,27.2871165 L28.0123635,27.2871165 L28.1969684,31.7271128 C28.1969684,32.2409871 27.7852485,32.6569078 27.2771615,32.6569078 L16.6671183,32.6569078 Z M16.4528749,10.8862584 C13.4595647,10.8862584 11.0183758,13.3668436 11.0635956,16.246543 C11.1032264,18.7699086 13.1111864,21.5732144 15.9512236,21.8231064 L16.4528749,10.8862584 Z" id="logo"></path>
                <g id="中煤集团应用集成门户系统" transform="translate(56.875000, 13.906250)" fill-rule="nonzero">
                    <path d="M0,1.640625 L7.109375,1.640625 L7.109375,0.234375 L10.234375,0.234375 L10.234375,1.640625 L17.34375,1.640625 L17.34375,14.21875 C17.3958333,15.78125 16.71875,16.5104167 15.3125,16.40625 L10.15625,16.40625 L10.15625,17.8125 L7.265625,17.8125 L7.265625,16.484375 L0,16.484375 L0,1.640625 Z M7.1875,4.21875 L2.890625,4.21875 L2.890625,14.0625 L7.1875,14.0625 L7.1875,4.21875 Z M10.15625,13.984375 L14.140625,13.984375 C14.3489583,14.0364583 14.453125,13.8802083 14.453125,13.515625 L14.453125,4.21875 L10.15625,4.21875 L10.15625,13.984375 Z" id="形状"></path>
                    <path d="M21.8558588,8.359375 L21.9339838,8.359375 L21.9339838,10.15625 L20.5277338,10.15625 C19.7464838,10.2083333 19.3819005,9.73958333 19.4339838,8.75 L19.4339838,0.46875 L21.6996088,0.46875 L21.6996088,8.046875 C21.6996088,8.30729167 21.7516921,8.41145833 21.8558588,8.359375 Z M34.5902338,4.21875 L34.5902338,3.046875 L30.7621088,3.046875 L30.7621088,4.21875 L34.5902338,4.21875 Z M30.7621088,7.578125 L34.0433588,7.578125 C34.3558588,7.578125 34.5121088,7.421875 34.5121088,7.109375 L34.5121088,6.40625 L30.7621088,6.40625 L30.7621088,7.578125 Z M34.5902338,16.5625 L34.0433588,13.4375 L36.5433588,13.4375 L36.8558588,15.390625 C36.9079421,15.8072917 37.0381505,15.9895833 37.2464838,15.9375 L37.3246088,15.9375 L37.3246088,17.96875 L36.5433588,17.96875 C35.3454421,18.0208333 34.6944005,17.5520833 34.5902338,16.5625 Z M22.4027338,8.59375 L22.4027338,0.078125 L24.9027338,0.078125 L24.9027338,8.59375 L26.1527338,14.84375 C26.3089838,15.625 26.5954421,15.9375 27.0121088,15.78125 L27.5589838,15.78125 C27.9235671,15.8854167 28.1319005,15.703125 28.1839838,15.234375 L28.4964838,13.515625 L30.9964838,13.515625 L30.6058588,16.640625 C30.4496088,17.5260417 29.8506505,17.96875 28.8089838,17.96875 L25.9183588,17.96875 C25.0850255,18.0208333 24.5121088,17.578125 24.1996088,16.640625 L23.4183588,14.53125 L22.6371088,16.875 C22.3766921,17.65625 21.8037755,18.0208333 20.9183588,17.96875 L19.3558588,17.96875 L19.3558588,15.9375 L19.7464838,15.9375 C20.1631505,16.0416667 20.4756505,15.7552083 20.6839838,15.078125 L22.4027338,8.59375 Z M25.3714838,8.28125 L25.4496088,8.28125 C25.5537755,8.33333333 25.6058588,8.22916667 25.6058588,7.96875 L25.6058588,0.390625 L27.7152338,0.390625 L27.7152338,0.9375 L28.1839838,0.9375 L28.1839838,0.078125 L30.8402338,0.078125 L30.8402338,0.859375 L34.5902338,0.859375 L34.5902338,0.078125 L37.1683588,0.078125 L37.1683588,0.78125 L37.5589838,0.78125 L37.5589838,3.046875 L37.1683588,3.046875 L37.1683588,7.96875 C37.2725255,9.375 36.6475255,10 35.2933588,9.84375 L33.8089838,9.84375 L33.8089838,10.546875 L37.4027338,10.546875 L37.4027338,12.734375 L33.7308588,12.734375 L33.7308588,17.96875 L31.1527338,17.96875 L31.1527338,12.734375 L27.6371088,12.734375 L27.6371088,10.546875 L31.2308588,10.546875 L31.2308588,9.84375 L28.1839838,9.84375 L28.1839838,3.046875 L27.7152338,3.046875 L27.7152338,8.59375 C27.7152338,9.6875 27.2985671,10.2083333 26.4652338,10.15625 L25.3714838,10.15625 L25.3714838,8.28125 Z" id="形状"></path>
                    <path d="M39.6577176,2.1875 L40.6733426,2.1875 C41.0379259,2.23958333 41.3243842,2.08333333 41.5327176,1.71875 L42.5483426,0 L45.2045926,0 L44.8139676,0.78125 L48.0952176,0.78125 L48.2514676,0 L51.2983426,0 L51.2202176,0.703125 L57.3139676,0.703125 L57.3139676,2.65625 L51.2983426,2.65625 L51.2983426,3.28125 L57.2358426,3.28125 L57.2358426,5.15625 L51.2983426,5.15625 L51.2983426,5.9375 L57.2358426,5.9375 L57.2358426,7.8125 L51.2983426,7.8125 L51.2983426,8.59375 L57.1577176,8.59375 L57.1577176,10.390625 L43.4858426,10.390625 L43.4858426,10.859375 L40.6733426,10.859375 L40.6733426,4.140625 L39.6577176,4.140625 L39.6577176,2.1875 Z M48.2514676,2.734375 L43.4858426,2.734375 L43.4858426,3.359375 L48.2514676,3.359375 L48.2514676,2.734375 Z M48.2514676,6.015625 L48.2514676,5.3125 L43.4858426,5.3125 L43.4858426,6.015625 L48.2514676,6.015625 Z M48.2514676,8.59375 L48.2514676,7.890625 L43.4858426,7.890625 L43.4858426,8.59375 L48.2514676,8.59375 Z M47.0795926,11.5625 L47.0795926,11.015625 L49.6577176,11.015625 L49.6577176,11.484375 L57.2358426,11.484375 L57.2358426,13.4375 L49.7358426,13.4375 L49.7358426,17.578125 L47.0795926,17.578125 L47.0795926,13.515625 L39.5795926,13.515625 L39.5795926,11.5625 L47.0795926,11.5625 Z M52.0014676,16.40625 L51.0639676,13.984375 L53.5639676,13.984375 L54.1889676,15.15625 C54.2931342,15.5729167 54.6577176,15.7552083 55.2827176,15.703125 L57.1577176,15.703125 L57.1577176,17.5 L53.5639676,17.5 C52.6264676,17.5520833 52.1056342,17.1875 52.0014676,16.40625 Z M42.2358426,15.46875 L43.0170926,14.140625 L45.3608426,14.140625 L43.9545926,16.875 C43.6941759,17.4479167 43.1473009,17.7083333 42.3139676,17.65625 L39.5795926,17.65625 L39.5795926,15.859375 L41.2983426,15.859375 C41.7670926,15.9114583 42.0795926,15.78125 42.2358426,15.46875 Z" id="形状"></path>
                    <path d="M76.8825764,0.078125 L76.8825764,16.09375 C76.8825764,17.1875 76.3357014,17.734375 75.2419514,17.734375 L59.9294514,17.734375 L59.9294514,0.078125 L76.8825764,0.078125 Z M74.3044514,2.5 L62.5075764,2.5 L62.5075764,15.625 L73.9138264,15.625 C74.1221597,15.625 74.252368,15.46875 74.3044514,15.15625 L74.3044514,2.5 Z M69.9294514,4.21875 L69.9294514,3.125 L72.5075764,3.125 L72.5075764,4.21875 L73.6013264,4.21875 L73.6013264,6.40625 L72.5075764,6.40625 L72.5075764,13.4375 C72.5596597,14.53125 72.142993,15.0260417 71.2575764,14.921875 L68.2888264,14.921875 L68.2888264,13.046875 L69.5388264,13.046875 C69.7471597,13.046875 69.877368,12.890625 69.9294514,12.578125 L69.9294514,6.484375 L63.3669514,6.484375 L63.3669514,4.21875 L69.9294514,4.21875 Z M65.4763264,12.421875 L67.1950764,7.421875 L69.6169514,7.421875 L67.5857014,13.4375 C67.2732014,14.53125 66.5700764,15.0260417 65.4763264,14.921875 L63.2888264,14.921875 L63.2888264,13.046875 L64.6950764,13.046875 C65.0075764,13.1510417 65.267993,12.9427083 65.4763264,12.421875 Z" id="形状"></path>
                    <path d="M79.8708101,0.859375 L87.3708101,0.859375 L87.3708101,0.15625 L90.7301851,0.15625 L90.7301851,0.859375 L96.9801851,0.859375 L96.9801851,3.203125 L82.6051851,3.203125 L82.6051851,16.328125 C82.7614351,17.5260417 82.1364351,18.0729167 80.7301851,17.96875 L79.2458101,17.96875 L79.2458101,15.859375 L79.5583101,15.859375 C79.7666435,15.9635417 79.8708101,15.78125 79.8708101,15.3125 L79.8708101,0.859375 Z M94.4020601,11.5625 L94.8708101,4.375 L97.2145601,4.375 L96.7458101,12.109375 C96.7458101,13.828125 96.1728935,14.5833333 95.0270601,14.375 L93.1520601,14.375 L93.1520601,12.1875 L93.8551851,12.1875 C94.2197685,12.2395833 94.4020601,12.03125 94.4020601,11.5625 Z M84.1676851,12.96875 L83.3083101,4.453125 L85.6520601,4.453125 L86.5114351,11.5625 C86.4593518,12.03125 86.6416435,12.2395833 87.0583101,12.1875 L87.8395601,12.1875 L87.8395601,14.375 L85.5739351,14.375 C84.6885185,14.4791667 84.2197685,14.0104167 84.1676851,12.96875 Z M88.6989351,12.5 L87.9958101,4.375 L90.4958101,4.375 L91.1208101,11.484375 C91.0687268,11.953125 91.2249768,12.1614583 91.5895601,12.109375 L92.2145601,12.109375 L92.2145601,14.375 L90.3395601,14.375 C89.2458101,14.53125 88.6989351,13.90625 88.6989351,12.5 Z M83.3864351,15.546875 L96.9801851,15.546875 L96.9801851,17.890625 L83.3864351,17.890625 L83.3864351,15.546875 Z" id="形状"></path>
                    <path d="M98.9324189,17.65625 L98.9324189,15.546875 L99.4011689,15.546875 C99.6615856,15.546875 99.7917939,15.4166667 99.7917939,15.15625 L99.7917939,0.3125 L116.823044,0.3125 L116.823044,15.234375 C117.031377,17.109375 116.328252,17.9427083 114.713669,17.734375 L110.963669,17.734375 L110.963669,15.546875 L113.463669,15.546875 C113.880336,15.5989583 114.062627,15.4166667 114.010544,15 L114.010544,12.96875 L109.791794,12.96875 L109.791794,17.5 L106.823044,17.5 L106.823044,12.96875 L102.604294,12.96875 L102.604294,15.546875 C102.864711,17.1614583 102.083461,17.8645833 100.260544,17.65625 L98.9324189,17.65625 Z M106.823044,2.421875 L102.604294,2.421875 L102.604294,5.46875 L106.823044,5.46875 L106.823044,2.421875 Z M109.791794,2.421875 L109.791794,5.46875 L114.010544,5.46875 L114.010544,2.421875 L109.791794,2.421875 Z M102.604294,7.734375 L102.604294,10.703125 L106.823044,10.703125 L106.823044,7.734375 L102.604294,7.734375 Z M109.791794,7.734375 L109.791794,10.703125 L114.010544,10.703125 L114.010544,7.734375 L109.791794,7.734375 Z" id="形状"></path>
                    <path d="M119.184153,2.1875 L120.199778,2.1875 C120.564361,2.23958333 120.850819,2.08333333 121.059153,1.71875 L122.074778,0 L124.731028,0 L124.340403,0.78125 L127.621653,0.78125 L127.777903,0 L130.824778,0 L130.746653,0.703125 L136.840403,0.703125 L136.840403,2.65625 L130.824778,2.65625 L130.824778,3.28125 L136.762278,3.28125 L136.762278,5.15625 L130.824778,5.15625 L130.824778,5.9375 L136.762278,5.9375 L136.762278,7.8125 L130.824778,7.8125 L130.824778,8.59375 L136.684153,8.59375 L136.684153,10.390625 L123.012278,10.390625 L123.012278,10.859375 L120.199778,10.859375 L120.199778,4.140625 L119.184153,4.140625 L119.184153,2.1875 Z M127.777903,2.734375 L123.012278,2.734375 L123.012278,3.359375 L127.777903,3.359375 L127.777903,2.734375 Z M127.777903,6.015625 L127.777903,5.3125 L123.012278,5.3125 L123.012278,6.015625 L127.777903,6.015625 Z M127.777903,8.59375 L127.777903,7.890625 L123.012278,7.890625 L123.012278,8.59375 L127.777903,8.59375 Z M126.606028,11.5625 L126.606028,11.015625 L129.184153,11.015625 L129.184153,11.484375 L136.762278,11.484375 L136.762278,13.4375 L129.262278,13.4375 L129.262278,17.578125 L126.606028,17.578125 L126.606028,13.515625 L119.106028,13.515625 L119.106028,11.5625 L126.606028,11.5625 Z M131.527903,16.40625 L130.590403,13.984375 L133.090403,13.984375 L133.715403,15.15625 C133.819569,15.5729167 134.184153,15.7552083 134.809153,15.703125 L136.684153,15.703125 L136.684153,17.5 L133.090403,17.5 C132.152903,17.5520833 131.632069,17.1875 131.527903,16.40625 Z M121.762278,15.46875 L122.543528,14.140625 L124.887278,14.140625 L123.481028,16.875 C123.220611,17.4479167 122.673736,17.7083333 121.840403,17.65625 L119.106028,17.65625 L119.106028,15.859375 L120.824778,15.859375 C121.293528,15.9114583 121.606028,15.78125 121.762278,15.46875 Z" id="形状"></path>
                    <path d="M149.183262,1.484375 L149.183262,0.078125 L152.073887,0.078125 L152.073887,1.484375 L153.323887,1.484375 C153.636387,1.53645833 153.818678,1.38020833 153.870762,1.015625 L154.027012,0.390625 L156.761387,0.390625 L156.448887,2.421875 C156.396803,3.72395833 155.771803,4.27083333 154.573887,4.0625 L152.230137,4.0625 L153.011387,11.40625 L153.480137,11.40625 C153.792637,11.4583333 153.948887,11.3020833 153.948887,10.9375 L153.948887,5.390625 L156.527012,5.390625 L156.527012,12.1875 C156.683262,13.4375 156.136387,13.984375 154.886387,13.828125 L153.245762,13.828125 L153.402012,14.6875 C153.402012,15.2083333 153.68847,15.4427083 154.261387,15.390625 L156.448887,15.390625 L156.448887,17.734375 L152.230137,17.734375 C151.03222,17.890625 150.433262,17.34375 150.433262,16.09375 L149.261387,4.0625 L142.386387,4.0625 L142.386387,5.703125 L146.683262,5.703125 C148.089512,5.546875 148.714512,6.19791667 148.558262,7.65625 L148.558262,15.859375 C148.714512,17.265625 148.06347,17.890625 146.605137,17.734375 L143.558262,17.734375 L143.558262,15.546875 L145.120762,15.546875 C145.537428,15.5989583 145.745762,15.390625 145.745762,14.921875 L145.745762,9.0625 C145.797845,8.28125 145.433262,7.91666667 144.652012,7.96875 L142.386387,7.96875 L142.386387,16.015625 C142.43847,17.2135417 141.839512,17.7864583 140.589512,17.734375 L138.558262,17.734375 L138.558262,15.546875 L138.870762,15.546875 C139.287428,15.5989583 139.495762,15.390625 139.495762,14.921875 L139.495762,1.484375 L149.183262,1.484375 Z" id="路径"></path>
                    <path d="M162.57587,3.359375 L161.48212,0 L164.216495,0 L164.685245,1.484375 C164.685245,1.74479167 164.815454,1.84895833 165.07587,1.796875 L165.778995,1.796875 L165.778995,4.21875 L163.82587,4.21875 C163.148787,4.27083333 162.73212,3.984375 162.57587,3.359375 Z M166.403995,2.734375 L166.403995,0.234375 L176.16962,0.234375 L176.16962,15.625 C176.221704,17.1875 175.518579,17.9427083 174.060245,17.890625 L169.216495,17.890625 L169.216495,15.546875 L172.88837,15.546875 C173.148787,15.5989583 173.278995,15.46875 173.278995,15.15625 L173.278995,2.734375 L166.403995,2.734375 Z M159.13837,18.203125 L159.13837,2.03125 L162.028995,2.03125 L162.028995,18.203125 L159.13837,18.203125 Z" id="形状"></path>
                    <path d="M193.336604,3.59375 L181.930354,3.59375 L181.930354,8.046875 L193.102229,8.046875 C193.206396,8.046875 193.284521,7.94270833 193.336604,7.734375 L193.336604,3.59375 Z M179.195979,1.40625 L185.836604,1.40625 L185.836604,0.3125 L189.039729,0.3125 L189.039729,1.40625 L196.070979,1.40625 L196.070979,8.046875 C196.123062,9.609375 195.393896,10.3385417 193.883479,10.234375 L181.930354,10.234375 L181.930354,15.46875 C181.930354,17.1354167 181.305354,17.96875 180.055354,17.96875 L178.492854,17.96875 L178.492854,15.625 C179.013687,15.7291667 179.248062,15.5208333 179.195979,15 L179.195979,1.40625 Z" id="形状"></path>
                    <path d="M213.430713,0.3125 L213.430713,0 L215.930713,0 L215.930713,1.171875 C216.139046,2.68229167 215.488005,3.30729167 213.977588,3.046875 L208.899463,3.046875 L204.368213,4.921875 L208.040088,4.921875 L209.290088,4.453125 L214.993213,4.453125 L204.446338,8.90625 L212.805713,8.90625 C213.170296,8.95833333 213.352588,8.77604167 213.352588,8.359375 L213.352588,6.71875 L216.008838,6.71875 L216.008838,9.21875 C216.217171,10.78125 215.488005,11.4322917 213.821338,11.171875 L208.665088,11.171875 L208.665088,17.890625 L205.774463,17.890625 L205.774463,11.25 L198.196338,11.25 L198.196338,8.90625 L202.961963,7.109375 L198.196338,7.109375 L198.196338,4.6875 L203.352588,3.046875 L198.196338,3.046875 L198.196338,0.78125 L212.883838,0.78125 C213.248421,0.833333333 213.430713,0.677083333 213.430713,0.3125 Z M199.993213,15.234375 L201.477588,12.03125 L204.602588,12.03125 L202.415088,17.109375 C202.258838,17.6302083 201.81613,17.8645833 201.086963,17.8125 L198.196338,17.8125 L198.196338,15.546875 L199.602588,15.546875 C199.758838,15.5989583 199.889046,15.4947917 199.993213,15.234375 Z M211.868213,16.875 L209.836963,12.03125 L212.883838,12.03125 L214.290088,15.234375 C214.394255,15.5989583 214.602588,15.7291667 214.915088,15.625 L216.008838,15.625 L216.008838,17.8125 L213.352588,17.8125 C212.519255,17.8645833 212.024463,17.5520833 211.868213,16.875 Z" id="形状"></path>
                    <path d="M228.670322,0.859375 L228.670322,0 L231.639072,0 L231.639072,0.859375 L235.623447,0.859375 L235.623447,3.046875 L229.451572,3.046875 L227.967197,6.40625 L232.810947,6.40625 C233.071363,6.45833333 233.201572,6.328125 233.201572,6.015625 L233.201572,4.140625 L235.701572,4.140625 L235.701572,7.265625 C235.701572,8.30729167 235.232822,8.80208333 234.295322,8.75 L233.201572,8.75 L233.201572,15.078125 C233.149488,15.546875 233.33178,15.7552083 233.748447,15.703125 L235.623447,15.703125 L235.623447,17.8125 L232.264072,17.8125 C231.170322,17.8125 230.649488,17.2395833 230.701572,16.09375 L230.701572,8.75 L224.842197,8.75 L224.842197,7.03125 L226.639072,3.046875 L224.842197,3.046875 L224.842197,0.859375 L228.670322,0.859375 Z M217.810947,5.15625 L220.701572,0.078125 L223.357822,0.078125 L220.232822,5.703125 L221.092197,5.703125 L222.185947,3.75 L224.920322,3.75 L220.857822,11.09375 L224.373447,11.09375 L224.373447,13.359375 L217.810947,13.359375 L217.810947,11.640625 L219.998447,7.890625 L217.810947,7.890625 L217.810947,5.15625 Z M226.248447,14.84375 L227.107822,9.453125 L229.529697,9.453125 L228.592197,16.09375 C228.48803,17.2916667 227.941155,17.8385417 226.951572,17.734375 L224.920322,17.734375 L224.920322,15.625 L225.467197,15.625 C225.935947,15.7291667 226.196363,15.46875 226.248447,14.84375 Z M224.295322,17.734375 L217.810947,17.734375 L217.810947,15.546875 L224.295322,15.546875 L224.295322,17.734375 Z" id="形状"></path>
                </g>
            </g>
        </g>
    </g>
</svg>